<svg width="18" height="18" viewBox="0 0 18 18" fill="none" xmlns="http://www.w3.org/2000/svg">
<g id="google-svgrepo-com 1" clip-path="url(#clip0_1_921)">
<path id="Vector" d="M4.83936 8.4544C4.66983 8.9519 4.58366 9.47419 4.58437 10C4.58437 10.5872 4.68955 11.1496 4.88398 11.6688C5.12631 12.3177 5.50696 12.9057 5.99928 13.3915C6.49161 13.8773 7.08373 14.2492 7.7342 14.4812C8.38467 14.7133 9.07779 14.7998 9.76506 14.7348C10.4523 14.6697 11.1171 14.4547 11.713 14.1048H11.7138C12.6525 13.5523 13.3738 12.6929 13.7569 11.6704H9.49615V8.5056H17.1499C17.3479 9.55238 17.3359 10.6283 17.1148 11.6704C16.7317 13.4719 15.741 15.0854 14.3099 16.2384C12.8965 17.3811 11.1356 18.0028 9.32085 18C7.95263 18.0008 6.60727 17.6477 5.41439 16.975C4.22152 16.3022 3.22132 15.3324 2.51017 14.1589C1.79903 12.9853 1.4009 11.6478 1.35414 10.2749C1.30738 8.90211 1.61358 7.54033 2.24322 6.3208C2.91494 5.01833 3.93046 3.92637 5.17872 3.16432C6.42698 2.40227 7.85992 1.99949 9.32085 2C11.254 2 13.027 2.6912 14.4071 3.8416L11.8253 5.9632C11.2205 5.58531 10.5387 5.34915 9.83045 5.27227C9.12222 5.19539 8.40584 5.27978 7.73456 5.51915C7.06329 5.75853 6.45439 6.14674 5.95315 6.65491C5.45191 7.16309 5.07121 7.77816 4.83936 8.4544Z" fill="white"/>
</g>
<defs>
<clipPath id="clip0_1_921">
<rect width="17.0791" height="17.1429" fill="white" transform="translate(0.851318 0.713867)"/>
</clipPath>
</defs>
</svg>
