<svg width="820" height="718" viewBox="0 0 820 718" fill="none" xmlns="http://www.w3.org/2000/svg">
<g clip-path="url(#clip0_606_27787)">
<path d="M667.717 88.2827L586.012 189.609" stroke="#48D8F8" stroke-width="0.943799" stroke-linecap="round" stroke-linejoin="round"/>
<path d="M438.961 179.7L481.262 199.586" stroke="#48D8F8" stroke-width="0.943799" stroke-linecap="round" stroke-linejoin="round"/>
<path d="M341.918 314.021L381.388 325.941" stroke="#48D8F8" stroke-width="0.943799" stroke-linecap="round" stroke-linejoin="round"/>
<path d="M383.953 255.835L426.377 270.587" stroke="#48D8F8" stroke-width="0.943799" stroke-linecap="round" stroke-linejoin="round"/>
<path d="M522.41 526.847L520.344 567.223" stroke="#48D8F8" stroke-width="0.943799" stroke-linecap="round" stroke-linejoin="round"/>
<path d="M629.946 595.084L629.785 648.739" stroke="#48D8F8" stroke-width="0.943799" stroke-linecap="round" stroke-linejoin="round"/>
<path d="M724.674 670.569L500.408 618.377L500.059 630.996L724.324 683.301" stroke="#48D8F8" stroke-width="0.943799" stroke-linecap="round" stroke-linejoin="round"/>
<path d="M724.674 670.569L724.324 683.301" stroke="white" stroke-width="0.943799" stroke-linecap="round" stroke-linejoin="round"/>
<path d="M498.691 209.476L497.795 296.051L436.155 367.987L435.73 287.245L498.691 209.476Z" stroke="#48D8F8" stroke-width="0.943799" stroke-linecap="round" stroke-linejoin="round"/>
<path d="M672.258 364.844L633.704 352.952L629.824 594.593L674.655 605.919L672.258 364.844Z" stroke="#48D8F8" stroke-width="0.943799" stroke-linecap="round" stroke-linejoin="round"/>
<path d="M723.439 377.463L684.932 365.581L680.656 607.457L724.779 618.226L723.439 377.463Z" stroke="#48D8F8" stroke-width="0.943799" stroke-linecap="round" stroke-linejoin="round"/>
<path d="M813.863 699.827L774.695 690.861V749.376L812.447 754.095" stroke="white" stroke-width="0.943799"/>
<path d="M758.652 760.23L759.041 663.962L813.393 677.368" stroke="#48D8F8" stroke-width="0.943799" stroke-linecap="round" stroke-linejoin="round"/>
<path d="M813.392 684.726L765.588 672.457L765.258 760.23" stroke="#48D8F8" stroke-width="0.943799" stroke-linecap="round" stroke-linejoin="round"/>
<path d="M749.348 417.131L753.368 650.815L813.979 661.065L816.49 432.911L749.348 417.131Z" stroke="white" stroke-width="0.943799" stroke-linecap="round" stroke-linejoin="round"/>
<path d="M739.938 382.72L816.782 403.672" stroke="#48D8F8" stroke-width="0.943799" stroke-linecap="round" stroke-linejoin="round"/>
<path d="M508.434 176.669L738.466 250.55" stroke="#48D8F8" stroke-width="0.943799" stroke-linecap="round" stroke-linejoin="round"/>
<path d="M738.344 266.444L545.555 207.353" stroke="#48D8F8" stroke-width="0.943799" stroke-linecap="round" stroke-linejoin="round"/>
<path d="M738.898 289L817.781 311.18" stroke="#48D8F8" stroke-width="0.943799" stroke-linecap="round" stroke-linejoin="round"/>
<path d="M817.951 296.051L738.672 274.372" stroke="#48D8F8" stroke-width="0.943799" stroke-linecap="round" stroke-linejoin="round"/>
<path d="M739.008 300.09L818.126 323.827" stroke="#48D8F8" stroke-width="0.943799" stroke-linecap="round" stroke-linejoin="round"/>
<path d="M782.732 313.209L781.977 394.177" stroke="#48D8F8" stroke-width="0.943799" stroke-linecap="round" stroke-linejoin="round"/>
<path d="M819.66 139.05L742.523 240.291" stroke="#48D8F8" stroke-width="0.943799" stroke-linecap="round" stroke-linejoin="round"/>
<path d="M741.898 113.067L655.871 212.232" stroke="#48D8F8" stroke-width="0.943799" stroke-linecap="round" stroke-linejoin="round"/>
<path d="M536.586 0L820.065 101.534L819.962 111.189L536.605 13.166L536.586 0Z" stroke="white" stroke-width="0.943799" stroke-linecap="round" stroke-linejoin="round"/>
<path d="M819.962 111.189L819.66 139.05L536.634 44.4905L536.605 13.1658L819.962 111.189Z" stroke="white" stroke-width="0.943799" stroke-linecap="round" stroke-linejoin="round"/>
<path d="M536.63 44.4905L311.091 356.69L310.836 332.491L536.602 13.1658L536.63 44.4905Z" stroke="white" stroke-width="0.943799" stroke-linecap="round" stroke-linejoin="round"/>
<path d="M536.585 0L536.604 13.166L310.838 332.491L310.715 321.024L536.585 0Z" stroke="white" stroke-width="0.943799" stroke-linecap="round" stroke-linejoin="round"/>
<path d="M508.402 164.466L508.732 316.333L500.059 630.996L742.341 687.435L738.462 250.541L742.049 251.853L742.52 240.291L508.402 164.466Z" stroke="white" stroke-width="0.943799" stroke-linecap="round" stroke-linejoin="round"/>
<path d="M554.65 84.5171L555.339 179.671L544.73 176.235L544.768 79.3262L554.65 84.5171Z" stroke="white" stroke-width="0.943799" stroke-linecap="round" stroke-linejoin="round"/>
<path d="M544.767 79.3262L544.729 176.235L540.199 174.773V84.0546L544.767 79.3262Z" stroke="white" stroke-width="0.943799" stroke-linecap="round" stroke-linejoin="round"/>
<path d="M585.324 157.917L586.013 189.222L575.414 185.787L575.452 152.716L585.324 157.917Z" stroke="white" stroke-width="0.943799" stroke-linecap="round" stroke-linejoin="round"/>
<path d="M575.452 152.716L575.415 185.787L570.875 184.324V157.445L575.452 152.716Z" stroke="white" stroke-width="0.943799" stroke-linecap="round" stroke-linejoin="round"/>
<path d="M739.58 350.848L508.67 283.366L409.023 399.227" stroke="white" stroke-width="0.943799" stroke-linecap="round" stroke-linejoin="round"/>
<path d="M545.605 294.163L545.539 188.958" stroke="#48D8F8" stroke-width="0.943799" stroke-linecap="round" stroke-linejoin="round"/>
<path d="M742.343 687.435L742.767 758.956L498.692 759.56L500.06 644.341V630.996L742.343 687.435Z" stroke="white" stroke-width="0.943799" stroke-linecap="round" stroke-linejoin="round"/>
<path d="M553.412 657.365L550.543 759.39L506.383 759.55L508.025 646.276L553.412 657.365Z" stroke="white" stroke-width="0.943799" stroke-linecap="round" stroke-linejoin="round"/>
<path d="M508.403 164.466L408.031 293.993V302.487L508.432 176.67L508.403 164.466Z" stroke="white" stroke-width="0.943799" stroke-linecap="round" stroke-linejoin="round"/>
<path d="M408.031 302.016L408.843 370.809" stroke="#48D8F8" stroke-width="0.943799" stroke-linecap="round" stroke-linejoin="round"/>
<path d="M408.843 370.8L409.022 399.227L327.176 480.139L327.478 455.109L408.843 370.8Z" stroke="#48D8F8" stroke-width="0.943799" stroke-linecap="round" stroke-linejoin="round"/>
<path d="M508.732 316.333L348.164 486.151L346.012 659.923L501.927 563.051L724.674 618.188" stroke="white" stroke-width="0.943799" stroke-linecap="round" stroke-linejoin="round"/>
<path d="M636.053 562.976L635.957 590.327L666.024 596.953L666.159 570.15L636.053 562.976Z" stroke="#48D8F8" stroke-width="0.943799" stroke-linecap="round" stroke-linejoin="round"/>
<path d="M636.176 554.519L665.821 561.843L666.16 370.101L638.262 361.446L636.176 554.519Z" stroke="#48D8F8" stroke-width="0.943799" stroke-linecap="round" stroke-linejoin="round"/>
<path d="M687.08 575.246L686.922 601.845L715.985 608.279L716.18 582.221L687.08 575.246Z" stroke="#48D8F8" stroke-width="0.943799" stroke-linecap="round" stroke-linejoin="round"/>
<path d="M686.969 566.94L716.576 574.254L717.34 382.719L689.479 374.074L686.969 566.94Z" stroke="#48D8F8" stroke-width="0.943799" stroke-linecap="round" stroke-linejoin="round"/>
<path d="M633.807 319.938L633.703 352.953" stroke="#48D8F8" stroke-width="0.943799" stroke-linecap="round" stroke-linejoin="round"/>
<path d="M723.055 346.015L723.442 377.463" stroke="#48D8F8" stroke-width="0.943799" stroke-linecap="round" stroke-linejoin="round"/>
<path d="M620.631 347.695L619.914 592.234L501.93 563.051L508.734 316.333L620.631 347.695Z" stroke="white" stroke-width="0.943799" stroke-linecap="round" stroke-linejoin="round"/>
<path d="M613.213 354.349L610.721 549.961L522.41 526.847L527.327 330.99" stroke="#48D8F8" stroke-width="0.943799" stroke-linecap="round" stroke-linejoin="round"/>
<path d="M609.532 581.852L527.422 562.032L529.309 534.662L610.476 557.248L609.532 581.852Z" stroke="#48D8F8" stroke-width="0.943799" stroke-linecap="round" stroke-linejoin="round"/>
<path d="M421.847 433.393L417.562 563.693L478.202 526.847L485.157 365.581L421.847 433.393Z" stroke="#48D8F8" stroke-width="0.943799" stroke-linecap="round" stroke-linejoin="round"/>
<path d="M417.78 599.425L478.325 561.843L478.249 539.069L417.629 575.113L417.78 599.425Z" stroke="#48D8F8" stroke-width="0.943799" stroke-linecap="round" stroke-linejoin="round"/>
<path d="M500.41 618.377L345.532 699.176L345.391 710.171L500.06 630.996L500.41 618.377Z" stroke="#48D8F8" stroke-width="0.943799" stroke-linecap="round" stroke-linejoin="round"/>
<path d="M500.06 630.996L345.391 710.171L346.014 659.923L501.929 563.052L500.06 630.996Z" stroke="white" stroke-width="0.943799" stroke-linecap="round" stroke-linejoin="round"/>
<path d="M569.979 659.923L568.488 759.39L613.158 759.23L615.518 670.399L569.979 659.923Z" stroke="#48D8F8" stroke-width="0.943799" stroke-linecap="round" stroke-linejoin="round"/>
<path d="M634.08 674.005L631.391 759.23L673.239 759.079L675.881 683.934L634.08 674.005Z" stroke="white" stroke-width="0.943799" stroke-linecap="round" stroke-linejoin="round"/>
<path d="M691.945 687.661L692.927 759.078L731.141 758.984V695.278L691.945 687.661Z" stroke="#48D8F8" stroke-width="0.943799" stroke-linecap="round" stroke-linejoin="round"/>
<path d="M452.516 666.652L454.196 759.409L491.995 759.56L490.485 646.672L452.516 666.652Z" stroke="#48D8F8" stroke-width="0.943799" stroke-linecap="round" stroke-linejoin="round"/>
<path d="M440.273 671.805L440.688 759.418L410.788 759.295L410.203 687.208L440.273 671.805Z" stroke="white" stroke-width="0.943799" stroke-linecap="round" stroke-linejoin="round"/>
<path d="M399.272 692.295L399.905 759.305L377.348 759.21L376.961 703.989L399.272 692.295Z" stroke="#48D8F8" stroke-width="0.943799" stroke-linecap="round" stroke-linejoin="round"/>
<path d="M369.146 708.019L367.758 759.22L350.723 759.173L351.61 716.089L369.146 708.019Z" stroke="white" stroke-width="0.943799" stroke-linecap="round" stroke-linejoin="round"/>
<path d="M738.672 274.372L742.768 758.956L812.902 759.89L817.951 296.051L818.253 265.68L742.504 240.065" stroke="white" stroke-width="0.943799" stroke-linecap="round" stroke-linejoin="round"/>
<path d="M810.088 437.451L808.201 621.491L759.595 612.997L756.141 425.483L810.088 437.451Z" stroke="#48D8F8" stroke-width="0.943799" stroke-linecap="round" stroke-linejoin="round"/>
<path d="M808.205 628.098V654.524L758.531 644.614L758.532 620.547L808.205 628.098Z" stroke="#48D8F8" stroke-width="0.943799" stroke-linecap="round" stroke-linejoin="round"/>
<path d="M756.143 425.493L749.348 417.131" stroke="#48D8F8" stroke-width="0.943799" stroke-linecap="round" stroke-linejoin="round"/>
<path d="M307.328 759.89H323.797L328.752 332.217L311.094 356.69L307.328 759.89Z" stroke="white" stroke-width="0.943799" stroke-linecap="round" stroke-linejoin="round"/>
<path d="M348.506 458.988L344.778 759.89H323.797L328.752 332.217L341.918 314.021L342.041 372.121" stroke="white" stroke-width="0.943799" stroke-linecap="round" stroke-linejoin="round"/>
<path d="M408.029 293.993L328.288 388.25L327.477 455.109L408.841 370.8L408.029 293.993Z" stroke="white" stroke-width="0.943799" stroke-linecap="round" stroke-linejoin="round"/>
<path d="M508.336 326.111L348.051 495.164L348.164 486.151L508.733 316.333L508.336 326.111ZM508.336 326.111L613.211 354.349L620.629 347.695" stroke="white" stroke-width="0.943799" stroke-linecap="round" stroke-linejoin="round"/>
<path d="M405.857 448.22L406.669 570.621L356.902 608.883L357.384 493.739L405.857 448.22Z" stroke="#48D8F8" stroke-width="0.943799" stroke-linecap="round" stroke-linejoin="round"/>
<path d="M357.384 493.739L361.112 496.504L362.037 604.937L356.902 608.882L357.384 493.739Z" stroke="#48D8F8" stroke-width="0.943799" stroke-linecap="round" stroke-linejoin="round"/>
<path d="M405.86 448.219L405.917 456.138L361.115 496.504L357.387 493.739L405.86 448.219Z" stroke="#48D8F8" stroke-width="0.943799" stroke-linecap="round" stroke-linejoin="round"/>
<path d="M407.01 581.446L407.529 602.899L357.177 639.433L356.988 618.556L407.01 581.446Z" stroke="#48D8F8" stroke-width="0.943799" stroke-linecap="round" stroke-linejoin="round"/>
<path d="M421.847 433.392L427.331 439.904L423.867 559.861L417.562 563.693L421.847 433.392Z" stroke="#48D8F8" stroke-width="0.943799" stroke-linecap="round" stroke-linejoin="round"/>
<path d="M485.158 365.581L484.525 380.096L427.331 439.905L421.848 433.393L485.158 365.581Z" stroke="#48D8F8" stroke-width="0.943799" stroke-linecap="round" stroke-linejoin="round"/>
<path d="M724.782 618.226L724.414 670.399" stroke="white" stroke-width="0.943799" stroke-linecap="round" stroke-linejoin="round"/>
<path d="M256.789 577.803L207.348 623.916L198.805 631.876L140.592 685.948L140.535 671.277L190.227 623.927L198.782 615.773L256.732 560.374L256.789 577.803Z" stroke="#F2A33B" stroke-width="0.943799" stroke-linecap="round" stroke-linejoin="round"/>
<path d="M251.316 565.308L251.316 546.432L256.979 546.799L256.932 901.301" stroke="#F2A33B" stroke-width="0.943799" stroke-linecap="square" stroke-linejoin="round"/>
<path d="M140.477 560.374L198.781 615.773L190.226 623.928L140.568 577.826L140.477 560.374Z" stroke="#F2A33B" stroke-width="0.943799" stroke-linecap="round" stroke-linejoin="round"/>
<path d="M141.094 291.393L190.226 244.434L198.78 236.268L256.73 180.869L256.787 198.299L207.346 244.411L198.803 252.371L152.612 295.45" stroke="#F2A33B" stroke-width="0.943799" stroke-linecap="round" stroke-linejoin="round"/>
<path d="M140.477 180.869L198.781 236.268L190.226 244.434L140.568 198.321L140.477 180.869Z" stroke="#F2A33B" stroke-width="0.943799" stroke-linecap="round" stroke-linejoin="round"/>
<path d="M256.789 291.393V306.192L198.805 252.372L207.348 244.412L256.789 291.393Z" stroke="#F2A33B" stroke-width="0.943799" stroke-linecap="round" stroke-linejoin="round"/>
<path d="M256.742 245.841L256.788 128.398L268.739 131.314L269.586 316.751" stroke="#F2A33B" stroke-width="0.943799" stroke-linecap="square" stroke-linejoin="round"/>
<path d="M256.739 315.087L256.785 128.398L251.238 134.139V185.616" stroke="#F2A33B" stroke-width="0.943799" stroke-linecap="square" stroke-linejoin="round"/>
<path d="M251.238 285.72V203.868" stroke="#F2A33B" stroke-width="0.943799" stroke-linecap="square" stroke-linejoin="round"/>
<path d="M251.238 301.389V306.192V314.815V309.499" stroke="#F2A33B" stroke-width="0.943799" stroke-linecap="square" stroke-linejoin="round"/>
<path d="M128.25 238.899L128.296 128.398L140.236 130.468L141.093 290.534" stroke="#F2A33B" stroke-width="0.943799" stroke-linecap="square" stroke-linejoin="round"/>
<path d="M122.762 288.069V133.796L128.297 128.398L128.251 288.561" stroke="#F2A33B" stroke-width="0.943799" stroke-linecap="square" stroke-linejoin="round"/>
<path d="M256.977 653.404L257.02 547.375L268.459 548.155L269.246 902.244" stroke="#F2A33B" stroke-width="0.943799" stroke-linecap="square" stroke-linejoin="round"/>
<path d="M251.238 665.019V583.396" stroke="#F2A33B" stroke-width="0.943799" stroke-linecap="square" stroke-linejoin="round"/>
<path d="M251.238 738.123V680.07" stroke="#F2A33B" stroke-width="0.943799" stroke-linecap="square" stroke-linejoin="round"/>
<path d="M128.621 646.537L128.665 538.881L140.082 539.97L140.89 896.581" stroke="#F2A33B" stroke-width="0.943799" stroke-linecap="square" stroke-linejoin="round"/>
<path d="M122.957 895.145V538.881H128.62L128.573 895.637" stroke="#F2A33B" stroke-width="0.943799" stroke-linecap="square" stroke-linejoin="round"/>
<path d="M256.789 670.897V685.696L198.805 631.875L207.348 623.916L256.789 670.897Z" stroke="#F2A33B" stroke-width="0.943799" stroke-linecap="round" stroke-linejoin="round"/>
<path d="M341.628 503.918L69.8126 472.858L5.23828 523.378V358.523L340.055 413.619L341.628 503.918Z" fill="#1090BB"/>
<path opacity="0.3" d="M422.696 343.329L341.238 408.115L6 353.965L76.6519 281.414L422.696 343.329Z" fill="#07E1FF"/>
<path fill-rule="evenodd" clip-rule="evenodd" d="M336.91 556.043L336.91 413.62L340.9 414.198L341.279 556.423L336.91 556.043Z" fill="#07E1FF"/>
<path fill-rule="evenodd" clip-rule="evenodd" d="M427.667 338.254L427.326 514.572L68.293 473.618L73.177 276.476L427.667 338.254ZM78.8192 283.483L73.177 468.528L421.564 507.816L421.868 345.452L78.8192 283.483Z" fill="#07E1FF"/>
<path fill-rule="evenodd" clip-rule="evenodd" d="M68.2928 473.618L8.98891 524.137L341.628 552.982L426.11 507.804L427.29 514.885L341.628 557.92L0.679688 528.696V524.137L68.6726 466.4L68.2928 473.618Z" fill="#07E1FF"/>
<path fill-rule="evenodd" clip-rule="evenodd" d="M6.41743 526.919L0.339844 528.835L0.680453 353.182L73.1199 276.562L73.0801 286.226L6.41743 356.624V526.919Z" fill="#07E1FF"/>
<path fill-rule="evenodd" clip-rule="evenodd" d="M1.0625 353.205L340.844 408.115L420.414 340.394V346.851L340.844 414.544L9.79902 360.25L1.0625 358.523V353.205Z" fill="#07E1FF"/>
<path opacity="0.3" d="M340.844 414.406L422.313 344.849V508.184L340.844 498.942V414.406Z" fill="#07E1FF"/>
<path d="M416.729 513.097L345.561 553.202L6 526.037L68.2952 473.618L416.729 513.097Z" fill="#1090BB"/>
<path d="M121.837 372.335L94.707 368.009L227.999 310.21L251.197 314.536L121.837 372.335Z" fill="url(#paint0_linear_606_27787)"/>
<path d="M182.077 374.694L161.547 373.617L296.411 322.399L332.978 329.047L182.077 374.694Z" fill="url(#paint1_linear_606_27787)"/>
<path d="M6.23816 381.771V359.753L53.421 477.71L47.9163 481.642L6.23816 381.771Z" fill="url(#paint2_linear_606_27787)"/>
<path d="M6.23816 416.372V394.353L39.6593 491.078L34.5479 495.403L6.23816 416.372Z" fill="url(#paint3_linear_606_27787)"/>
<path opacity="0.6" d="M173.734 403.004L249.227 414.406L250.013 469.06L173.734 460.41V403.004Z" fill="#183E78"/>
<path d="M171.77 405.363L173.735 403.397V460.41L171.77 462.376V405.363Z" stroke="white" stroke-width="0.759698" stroke-linecap="square" stroke-linejoin="round"/>
<path d="M249.621 469.06L174.129 460.017L171.77 462.376L245.689 470.633L249.621 469.06Z" stroke="white" stroke-width="0.759698" stroke-linecap="square" stroke-linejoin="round"/>
<circle cx="212.269" cy="423.843" r="3.53871" fill="white"/>
<circle cx="212.269" cy="423.843" r="3.53871" fill="white"/>
<circle cx="212.269" cy="423.843" r="3.53871" fill="#07E1FF"/>
<circle cx="212.27" cy="423.843" r="6.29105" stroke="white" stroke-width="0.786381"/>
<circle cx="212.27" cy="423.843" r="6.29105" stroke="white" stroke-width="0.786381"/>
<circle cx="212.27" cy="423.843" r="6.29105" stroke="white" stroke-width="0.786381"/>
<path d="M181.469 439.286L244.218 448.003L243.693 462.325L180.944 453.608L181.469 439.286Z" stroke="#F8F8F8" stroke-width="0.770734" stroke-linecap="square" stroke-linejoin="round"/>
<path d="M181.762 431.314L194.471 433.052L194.343 436.565L181.633 434.826L181.762 431.314Z" stroke="#F8F8F8" stroke-width="0.770734" stroke-linecap="square" stroke-linejoin="round"/>
<path d="M197.648 433.493L211.148 435.473L210.997 439.571L197.498 437.591L197.648 433.493Z" stroke="#F8F8F8" stroke-width="0.770734" stroke-linecap="square" stroke-linejoin="round"/>
<path d="M213.535 435.672L227.034 437.652L226.884 441.75L213.385 439.77L213.535 435.672Z" stroke="#F8F8F8" stroke-width="0.770734" stroke-linecap="square" stroke-linejoin="round"/>
<path d="M230.188 438.678L242.897 440.416L242.768 443.929L230.059 442.19L230.188 438.678Z" stroke="#F8F8F8" stroke-width="0.770734" stroke-linecap="square" stroke-linejoin="round"/>
<rect x="62" y="617.795" width="758" height="142" fill="url(#paint4_linear_606_27787)"/>
</g>
<defs>
<linearGradient id="paint0_linear_606_27787" x1="246.196" y1="315.079" x2="207.7" y2="411.744" gradientUnits="userSpaceOnUse">
<stop stop-color="#C4F8FF"/>
<stop offset="1" stop-color="#B0F1FA"/>
</linearGradient>
<linearGradient id="paint1_linear_606_27787" x1="327.5" y1="326.498" x2="301.121" y2="412.701" gradientUnits="userSpaceOnUse">
<stop stop-color="#C4F8FF"/>
<stop offset="1" stop-color="#B0F1FA"/>
</linearGradient>
<linearGradient id="paint2_linear_606_27787" x1="6.63134" y1="363.685" x2="4.49658" y2="467.359" gradientUnits="userSpaceOnUse">
<stop stop-color="#C4F8FF"/>
<stop offset="1" stop-color="#B0F1FA"/>
</linearGradient>
<linearGradient id="paint3_linear_606_27787" x1="-22.8579" y1="388.062" x2="-24.9927" y2="491.737" gradientUnits="userSpaceOnUse">
<stop stop-color="#C4F8FF"/>
<stop offset="1" stop-color="#B0F1FA"/>
</linearGradient>
<linearGradient id="paint4_linear_606_27787" x1="441" y1="617.795" x2="441" y2="718.295" gradientUnits="userSpaceOnUse">
<stop stop-color="#183E78" stop-opacity="0"/>
<stop offset="1" stop-color="#183E78"/>
</linearGradient>
<clipPath id="clip0_606_27787">
<rect width="820" height="718" fill="white"/>
</clipPath>
</defs>
</svg>
