<svg width="17" height="18" viewBox="0 0 17 18" fill="none" xmlns="http://www.w3.org/2000/svg">
<g id="twitter-svgrepo-com 1" clip-path="url(#clip0_1_928)">
<g id="XMLID_826_">
<path id="XMLID_827_" d="M16.6162 3.33163C16.3501 3.45705 16.0765 3.5629 15.797 3.64883C16.1279 3.25109 16.3803 2.78309 16.5343 2.27096C16.5688 2.15617 16.533 2.03052 16.4442 1.95544C16.3556 1.8803 16.2324 1.8713 16.1347 1.93279C15.5411 2.30696 14.9007 2.57586 14.2292 2.7331C13.5527 2.03063 12.634 1.63086 11.6842 1.63086C9.6794 1.63086 8.04833 3.36426 8.04833 5.49488C8.04833 5.66269 8.05833 5.82956 8.07811 5.99412C5.59031 5.76198 3.27746 4.46243 1.68922 2.39191C1.63262 2.31811 1.54543 2.27834 1.45615 2.28594C1.36682 2.29338 1.28657 2.34691 1.24144 2.42919C0.91931 3.01663 0.749014 3.68849 0.749014 4.37209C0.749014 5.30315 1.0618 6.18654 1.61432 6.87681C1.44632 6.81498 1.28329 6.73769 1.12769 6.64589C1.04415 6.59648 0.942203 6.59723 0.859212 6.64781C0.776167 6.69838 0.7241 6.7914 0.721915 6.89307C0.721533 6.9102 0.721533 6.92733 0.721533 6.94469C0.721533 8.33447 1.42534 9.5857 2.50137 10.2677C2.40893 10.2579 2.31654 10.2436 2.22475 10.225C2.13013 10.2058 2.03282 10.241 1.96901 10.3177C1.90509 10.3944 1.88394 10.5012 1.91339 10.5988C2.31168 11.9203 3.33712 12.8924 4.57678 13.1887C3.54861 13.8731 2.37282 14.2316 1.13851 14.2316C0.880957 14.2316 0.621933 14.2155 0.368428 14.1837C0.242494 14.1677 0.122079 14.2468 0.079191 14.374C0.0363026 14.5014 0.0817588 14.6434 0.188898 14.7163C1.77456 15.7969 3.60805 16.368 5.49104 16.368C9.19277 16.368 11.5085 14.5128 12.7992 12.9565C14.4088 11.0159 15.3319 8.44734 15.3319 5.9094C15.3319 5.80338 15.3303 5.69631 15.3273 5.58958C15.9623 5.08111 16.509 4.46574 16.9539 3.75846C17.0215 3.65104 17.0142 3.50907 16.9359 3.41019C16.8577 3.31125 16.7274 3.27925 16.6162 3.33163Z" fill="white"/>
</g>
</g>
<defs>
<clipPath id="clip0_1_928">
<rect width="16.9368" height="18" fill="white" transform="translate(0.0631714)"/>
</clipPath>
</defs>
</svg>
