<svg width="33" height="23" viewBox="0 0 33 23" fill="none" xmlns="http://www.w3.org/2000/svg">
<g id="Group 1410097406">
<path id="Vector 1014" d="M1 21.3221V6.78067C1 6.51168 1.29453 6.3465 1.52406 6.48676L16.3204 15.529C16.4307 15.5963 16.5693 15.5963 16.6796 15.529L31.4759 6.48676C31.7055 6.3465 32 6.51168 32 6.78067V21.3221C32 21.5123 31.8458 21.6665 31.6556 21.6665H1.34444C1.15421 21.6665 1 21.5123 1 21.3221Z" fill="white" stroke="white" stroke-width="1.72222"/>
<path id="Vector 1015" d="M30.7191 1H3.07728C2.72989 1 2.60095 1.45593 2.89688 1.63787L16.3227 9.89219C16.4307 9.95859 16.5664 9.9603 16.6761 9.89664L30.892 1.64232C31.1964 1.46559 31.071 1 30.7191 1Z" fill="white" stroke="white" stroke-width="1.72222"/>
</g>
</svg>
