<svg width="19" height="19" viewBox="0 0 19 19" fill="none" xmlns="http://www.w3.org/2000/svg">
<g id="facebook-svgrepo-com 1" clip-path="url(#clip0_1_918)">
<g id="XMLID_834_">
<path id="XMLID_835_" d="M4.87704 9.89114H6.9052V18.2719C6.9052 18.4374 7.03877 18.5714 7.20362 18.5714H10.6424C10.8073 18.5714 10.9409 18.4374 10.9409 18.2719V9.93062H13.2724C13.424 9.93062 13.5516 9.81644 13.5689 9.66529L13.923 6.57992C13.9327 6.49503 13.9059 6.41002 13.8493 6.34634C13.7927 6.28259 13.7116 6.24611 13.6266 6.24611H10.941V4.31205C10.941 3.72902 11.2537 3.43338 11.8706 3.43338C11.9586 3.43338 13.6266 3.43338 13.6266 3.43338C13.7914 3.43338 13.925 3.29924 13.925 3.13384V0.301756C13.925 0.13629 13.7914 0.00221659 13.6266 0.00221659H11.2066C11.1896 0.00137788 11.1517 0 11.0958 0C10.6759 0 9.21645 0.0827326 8.06357 1.14729C6.78619 2.327 6.96375 3.73951 7.00619 3.98441V6.24605H4.87704C4.71219 6.24605 4.57861 6.38012 4.57861 6.54559V9.59154C4.57861 9.75701 4.71219 9.89114 4.87704 9.89114Z" fill="white"/>
</g>
</g>
<defs>
<clipPath id="clip0_1_918">
<rect width="18.5024" height="18.5714" fill="white"/>
</clipPath>
</defs>
</svg>
