<svg width="18" height="17" viewBox="0 0 18 17" fill="none" xmlns="http://www.w3.org/2000/svg">
<g id="linkedin-svgrepo-com 1" clip-path="url(#clip0_1_923)">
<g id="XMLID_801_">
<path id="XMLID_802_" d="M4.14629 5.46875H0.746197C0.595295 5.46875 0.473022 5.59153 0.473022 5.74294V16.7067C0.473022 16.8582 0.595295 16.9809 0.746197 16.9809H4.14629C4.29719 16.9809 4.41946 16.8582 4.41946 16.7067V5.74294C4.41946 5.59153 4.29719 5.46875 4.14629 5.46875Z" fill="white"/>
<path id="XMLID_803_" d="M2.4481 0.0185547C1.21095 0.0185547 0.204468 1.0277 0.204468 2.2681C0.204468 3.50904 1.21095 4.51857 2.4481 4.51857C3.68427 4.51857 4.68993 3.50899 4.68993 2.2681C4.68999 1.0277 3.68427 0.0185547 2.4481 0.0185547Z" fill="white"/>
<path id="XMLID_804_" d="M12.795 5.19727C11.4294 5.19727 10.4199 5.78651 9.8076 6.45603V5.74395C9.8076 5.59254 9.68532 5.46976 9.53442 5.46976H6.27824C6.12734 5.46976 6.00507 5.59254 6.00507 5.74395V16.7077C6.00507 16.8592 6.12734 16.9819 6.27824 16.9819H9.6709C9.8218 16.9819 9.94407 16.8592 9.94407 16.7077V11.2832C9.94407 9.45527 10.4387 8.74313 11.7082 8.74313C13.0908 8.74313 13.2007 9.88477 13.2007 11.3773V16.7078C13.2007 16.8593 13.323 16.982 13.4739 16.982H16.8678C17.0187 16.982 17.141 16.8593 17.141 16.7078V10.694C17.141 7.97589 16.6246 5.19727 12.795 5.19727Z" fill="white"/>
</g>
</g>
<defs>
<clipPath id="clip0_1_923">
<rect width="16.9368" height="17" fill="white" transform="translate(0.204468)"/>
</clipPath>
</defs>
</svg>
