<svg width="17" height="16" viewBox="0 0 17 16" fill="none" xmlns="http://www.w3.org/2000/svg">
<path d="M14.8991 6.35049L3.89508 0.33672C3.60129 0.132758 3.25403 0.016417 2.89484 0.00161289C2.53564 -0.0131912 2.17974 0.0741684 1.86966 0.253242C1.55958 0.432316 1.30845 0.695523 1.14634 1.01138C0.984236 1.32724 0.917999 1.68236 0.955549 2.0343V13.9381C0.955549 15.1546 1.65379 16 2.72207 16C3.13535 15.9909 3.53931 15.8773 3.89508 15.6701L14.906 9.65634C15.2442 9.53041 15.5354 9.30612 15.7409 9.01331C15.9464 8.7205 16.0564 8.37304 16.0564 8.01716C16.0564 7.66127 15.9464 7.31381 15.7409 7.021C15.5354 6.72819 15.2442 6.50391 14.906 6.37797L14.8991 6.35049ZM14.2846 8.53606L3.28064 14.5567C3.11017 14.6617 2.91577 14.7231 2.71508 14.7354C2.28218 14.7354 2.21238 14.2405 2.21238 13.9381V2.0343C2.21238 1.73877 2.28218 1.2508 2.71508 1.2508C2.91532 1.26015 3.10988 1.31926 3.28064 1.42263L14.2846 7.43638C14.5918 7.6082 14.7873 7.8213 14.7873 7.99312C14.7873 8.16494 14.5918 8.37111 14.2846 8.53606Z" fill="#48D8F8"/>
</svg>
